<!-- Uploaded to: SVG Repo, www.svgrepo.com, Transformed by: SVG Repo Mixer Tools -->
<svg height="100px" width="100px" version="1.1" id="Capa_1" xmlns="http://www.w3.org/2000/svg" xmlns:xlink="http://www.w3.org/1999/xlink" viewBox="0 0 54.00 54.00" xml:space="preserve" fill="#000000" transform="rotate(180)" stroke="#000000" stroke-width="0.00054">

<g id="SVGRepo_bgCarrier" stroke-width="0"/>

<g id="SVGRepo_tracerCarrier" stroke-linecap="round" stroke-linejoin="round"/>

<g id="SVGRepo_iconCarrier"> <g> <g> <path style="fill:#22FABE;" d="M1,27L1,27C1,12.641,12.641,1,27,1h0c14.359,0,26,11.641,26,26v0c0,14.359-11.641,26-26,26h0 C12.641,53,1,41.359,1,27z"/> <path style="fill:#22FABE;" d="M27,54C12.112,54,0,41.888,0,27S12.112,0,27,0s27,12.112,27,27S41.888,54,27,54z M27,2 C13.215,2,2,13.215,2,27s11.215,25,25,25s25-11.215,25-25S40.785,2,27,2z"/> </g> <path style="fill:#1D1D1D;" d="M18,37c-0.256,0-0.512-0.098-0.707-0.293c-0.391-0.391-0.391-1.023,0-1.414l18.385-18.385 c0.391-0.391,1.023-0.391,1.414,0s0.391,1.023,0,1.414L18.707,36.707C18.512,36.902,18.256,37,18,37z"/> <polygon style="fill:#1D1D1D;" points="32.143,37 17,37 17,21.857 19,21.857 19,35 32.143,35 "/> </g> </g>

</svg>
